<mxfile host="app.diagrams.net" agent="Mozilla/5.0 (Windows NT 10.0; Win64; x64) AppleWebKit/537.36 (KHTML, like Gecko) Chrome/138.0.0.0 Safari/537.36" version="28.0.7">
  <diagram name="หน้า-1" id="k0og21mmubbneCFFl6oo">
    <mxGraphModel dx="4043" dy="2433" grid="1" gridSize="10" guides="1" tooltips="1" connect="1" arrows="1" fold="1" page="1" pageScale="1" pageWidth="2339" pageHeight="3300" math="0" shadow="0">
      <root>
        <mxCell id="0" />
        <mxCell id="1" parent="0" />
        <mxCell id="r-4B_QJJ8LSc6Or3q1Dz-39" style="edgeStyle=orthogonalEdgeStyle;rounded=0;orthogonalLoop=1;jettySize=auto;html=1;exitX=0.5;exitY=1;exitDx=0;exitDy=0;entryX=0.5;entryY=0;entryDx=0;entryDy=0;" edge="1" parent="1" source="r-4B_QJJ8LSc6Or3q1Dz-1" target="r-4B_QJJ8LSc6Or3q1Dz-38">
          <mxGeometry relative="1" as="geometry" />
        </mxCell>
        <mxCell id="r-4B_QJJ8LSc6Or3q1Dz-1" value="เริ่มต้น" style="ellipse;whiteSpace=wrap;html=1;" vertex="1" parent="1">
          <mxGeometry x="870" y="210" width="100" height="50" as="geometry" />
        </mxCell>
        <mxCell id="r-4B_QJJ8LSc6Or3q1Dz-138" value="" style="edgeStyle=orthogonalEdgeStyle;rounded=0;orthogonalLoop=1;jettySize=auto;html=1;" edge="1" parent="1" source="r-4B_QJJ8LSc6Or3q1Dz-12" target="r-4B_QJJ8LSc6Or3q1Dz-137">
          <mxGeometry relative="1" as="geometry" />
        </mxCell>
        <mxCell id="r-4B_QJJ8LSc6Or3q1Dz-155" style="edgeStyle=orthogonalEdgeStyle;rounded=0;orthogonalLoop=1;jettySize=auto;html=1;exitX=1;exitY=0.5;exitDx=0;exitDy=0;entryX=1;entryY=0.5;entryDx=0;entryDy=0;" edge="1" parent="1" source="r-4B_QJJ8LSc6Or3q1Dz-12" target="r-4B_QJJ8LSc6Or3q1Dz-73">
          <mxGeometry relative="1" as="geometry">
            <Array as="points">
              <mxPoint x="1950" y="390" />
              <mxPoint x="1950" y="2295" />
            </Array>
          </mxGeometry>
        </mxCell>
        <mxCell id="r-4B_QJJ8LSc6Or3q1Dz-12" value="กด1คือเล่น กด-1คือออกเกม" style="rhombus;whiteSpace=wrap;html=1;" vertex="1" parent="1">
          <mxGeometry x="845" y="350" width="150" height="80" as="geometry" />
        </mxCell>
        <mxCell id="r-4B_QJJ8LSc6Or3q1Dz-142" value="" style="edgeStyle=orthogonalEdgeStyle;rounded=0;orthogonalLoop=1;jettySize=auto;html=1;" edge="1" parent="1" source="r-4B_QJJ8LSc6Or3q1Dz-14" target="r-4B_QJJ8LSc6Or3q1Dz-141">
          <mxGeometry relative="1" as="geometry" />
        </mxCell>
        <mxCell id="r-4B_QJJ8LSc6Or3q1Dz-14" value="score=100" style="whiteSpace=wrap;html=1;" vertex="1" parent="1">
          <mxGeometry x="850" y="680" width="120" height="60" as="geometry" />
        </mxCell>
        <mxCell id="r-4B_QJJ8LSc6Or3q1Dz-90" style="edgeStyle=orthogonalEdgeStyle;rounded=0;orthogonalLoop=1;jettySize=auto;html=1;exitX=0.5;exitY=1;exitDx=0;exitDy=0;entryX=0.5;entryY=0;entryDx=0;entryDy=0;" edge="1" parent="1" source="r-4B_QJJ8LSc6Or3q1Dz-19" target="r-4B_QJJ8LSc6Or3q1Dz-82">
          <mxGeometry relative="1" as="geometry" />
        </mxCell>
        <mxCell id="r-4B_QJJ8LSc6Or3q1Dz-19" value="สุ่มเลข1-100&lt;div&gt;(เก็บในRandom)&lt;/div&gt;" style="whiteSpace=wrap;html=1;" vertex="1" parent="1">
          <mxGeometry x="840" y="960" width="120" height="60" as="geometry" />
        </mxCell>
        <mxCell id="r-4B_QJJ8LSc6Or3q1Dz-124" style="edgeStyle=orthogonalEdgeStyle;rounded=0;orthogonalLoop=1;jettySize=auto;html=1;exitX=0.5;exitY=1;exitDx=0;exitDy=0;entryX=0.5;entryY=0;entryDx=0;entryDy=0;" edge="1" parent="1" source="r-4B_QJJ8LSc6Or3q1Dz-23" target="r-4B_QJJ8LSc6Or3q1Dz-25">
          <mxGeometry relative="1" as="geometry" />
        </mxCell>
        <mxCell id="r-4B_QJJ8LSc6Or3q1Dz-23" value="รับค่าจากผู้เล่น(Number)" style="shape=parallelogram;perimeter=parallelogramPerimeter;whiteSpace=wrap;html=1;fixedSize=1;" vertex="1" parent="1">
          <mxGeometry x="820" y="1110" width="160" height="60" as="geometry" />
        </mxCell>
        <mxCell id="r-4B_QJJ8LSc6Or3q1Dz-34" value="" style="edgeStyle=orthogonalEdgeStyle;rounded=0;orthogonalLoop=1;jettySize=auto;html=1;" edge="1" parent="1" source="r-4B_QJJ8LSc6Or3q1Dz-25" target="r-4B_QJJ8LSc6Or3q1Dz-33">
          <mxGeometry relative="1" as="geometry" />
        </mxCell>
        <mxCell id="r-4B_QJJ8LSc6Or3q1Dz-132" style="edgeStyle=orthogonalEdgeStyle;rounded=0;orthogonalLoop=1;jettySize=auto;html=1;exitX=1;exitY=0.5;exitDx=0;exitDy=0;entryX=0.5;entryY=0;entryDx=0;entryDy=0;" edge="1" parent="1" source="r-4B_QJJ8LSc6Or3q1Dz-25" target="r-4B_QJJ8LSc6Or3q1Dz-128">
          <mxGeometry relative="1" as="geometry" />
        </mxCell>
        <mxCell id="r-4B_QJJ8LSc6Or3q1Dz-25" value="Number==Random หรือไม่" style="rhombus;whiteSpace=wrap;html=1;" vertex="1" parent="1">
          <mxGeometry x="790" y="1220" width="220" height="80" as="geometry" />
        </mxCell>
        <mxCell id="r-4B_QJJ8LSc6Or3q1Dz-152" style="edgeStyle=orthogonalEdgeStyle;rounded=0;orthogonalLoop=1;jettySize=auto;html=1;exitX=0.5;exitY=1;exitDx=0;exitDy=0;entryX=0;entryY=0.5;entryDx=0;entryDy=0;" edge="1" parent="1" source="r-4B_QJJ8LSc6Or3q1Dz-33" target="r-4B_QJJ8LSc6Or3q1Dz-38">
          <mxGeometry relative="1" as="geometry">
            <Array as="points">
              <mxPoint x="555" y="1390" />
              <mxPoint x="350" y="1390" />
              <mxPoint x="350" y="300" />
            </Array>
          </mxGeometry>
        </mxCell>
        <mxCell id="r-4B_QJJ8LSc6Or3q1Dz-33" value="แสดง&quot;That is correct the winning&amp;nbsp; number is.....&lt;span style=&quot;background-color: transparent; color: light-dark(rgb(0, 0, 0), rgb(255, 255, 255));&quot;&gt;&quot;&lt;/span&gt;&lt;div&gt;และ score&lt;/div&gt;" style="whiteSpace=wrap;html=1;" vertex="1" parent="1">
          <mxGeometry x="410" y="1310" width="290" height="60" as="geometry" />
        </mxCell>
        <mxCell id="r-4B_QJJ8LSc6Or3q1Dz-40" style="edgeStyle=orthogonalEdgeStyle;rounded=0;orthogonalLoop=1;jettySize=auto;html=1;exitX=0.5;exitY=1;exitDx=0;exitDy=0;entryX=0.5;entryY=0;entryDx=0;entryDy=0;" edge="1" parent="1" source="r-4B_QJJ8LSc6Or3q1Dz-38" target="r-4B_QJJ8LSc6Or3q1Dz-12">
          <mxGeometry relative="1" as="geometry" />
        </mxCell>
        <mxCell id="r-4B_QJJ8LSc6Or3q1Dz-38" value="" style="ellipse;whiteSpace=wrap;html=1;aspect=fixed;" vertex="1" parent="1">
          <mxGeometry x="910" y="290" width="20" height="20" as="geometry" />
        </mxCell>
        <mxCell id="r-4B_QJJ8LSc6Or3q1Dz-48" value="" style="edgeStyle=orthogonalEdgeStyle;rounded=0;orthogonalLoop=1;jettySize=auto;html=1;" edge="1" parent="1" source="r-4B_QJJ8LSc6Or3q1Dz-43" target="r-4B_QJJ8LSc6Or3q1Dz-47">
          <mxGeometry relative="1" as="geometry" />
        </mxCell>
        <mxCell id="r-4B_QJJ8LSc6Or3q1Dz-43" value="Number &lt;span style=&quot;font-size: 10px;&quot;&gt;&amp;lt; Random หรือไม่&lt;/span&gt;" style="rhombus;whiteSpace=wrap;html=1;" vertex="1" parent="1">
          <mxGeometry x="1120" y="1690" width="220" height="80" as="geometry" />
        </mxCell>
        <mxCell id="r-4B_QJJ8LSc6Or3q1Dz-55" style="edgeStyle=orthogonalEdgeStyle;rounded=0;orthogonalLoop=1;jettySize=auto;html=1;exitX=0.5;exitY=1;exitDx=0;exitDy=0;entryX=0;entryY=0.5;entryDx=0;entryDy=0;" edge="1" parent="1" source="r-4B_QJJ8LSc6Or3q1Dz-47" target="r-4B_QJJ8LSc6Or3q1Dz-53">
          <mxGeometry relative="1" as="geometry" />
        </mxCell>
        <mxCell id="r-4B_QJJ8LSc6Or3q1Dz-47" value="แสดง &quot;Sorry, the winning number is LOWER than(ขอบเขตเลข)&quot;&lt;div&gt;และ score&lt;/div&gt;" style="whiteSpace=wrap;html=1;" vertex="1" parent="1">
          <mxGeometry x="760" y="1800" width="340" height="60" as="geometry" />
        </mxCell>
        <mxCell id="r-4B_QJJ8LSc6Or3q1Dz-49" value="yes" style="text;html=1;align=center;verticalAlign=middle;resizable=0;points=[];autosize=1;strokeColor=none;fillColor=none;" vertex="1" parent="1">
          <mxGeometry x="650" y="1220" width="40" height="30" as="geometry" />
        </mxCell>
        <mxCell id="r-4B_QJJ8LSc6Or3q1Dz-56" style="edgeStyle=orthogonalEdgeStyle;rounded=0;orthogonalLoop=1;jettySize=auto;html=1;exitX=0.5;exitY=1;exitDx=0;exitDy=0;entryX=1;entryY=0.5;entryDx=0;entryDy=0;" edge="1" parent="1" source="r-4B_QJJ8LSc6Or3q1Dz-51" target="r-4B_QJJ8LSc6Or3q1Dz-53">
          <mxGeometry relative="1" as="geometry" />
        </mxCell>
        <mxCell id="r-4B_QJJ8LSc6Or3q1Dz-51" value="แสดง &quot;Sorry, the winning number is HIGHER than(ขอบเขตเลข)&quot;&lt;div&gt;และ score&lt;/div&gt;" style="whiteSpace=wrap;html=1;" vertex="1" parent="1">
          <mxGeometry x="1340" y="1800" width="340" height="60" as="geometry" />
        </mxCell>
        <mxCell id="r-4B_QJJ8LSc6Or3q1Dz-52" style="edgeStyle=orthogonalEdgeStyle;rounded=0;orthogonalLoop=1;jettySize=auto;html=1;exitX=1;exitY=0.5;exitDx=0;exitDy=0;entryX=0.52;entryY=-0.018;entryDx=0;entryDy=0;entryPerimeter=0;" edge="1" parent="1" source="r-4B_QJJ8LSc6Or3q1Dz-43" target="r-4B_QJJ8LSc6Or3q1Dz-51">
          <mxGeometry relative="1" as="geometry" />
        </mxCell>
        <mxCell id="r-4B_QJJ8LSc6Or3q1Dz-102" style="edgeStyle=orthogonalEdgeStyle;rounded=0;orthogonalLoop=1;jettySize=auto;html=1;exitX=0.5;exitY=1;exitDx=0;exitDy=0;entryX=0.5;entryY=0;entryDx=0;entryDy=0;" edge="1" parent="1" source="r-4B_QJJ8LSc6Or3q1Dz-53" target="r-4B_QJJ8LSc6Or3q1Dz-60">
          <mxGeometry relative="1" as="geometry" />
        </mxCell>
        <mxCell id="r-4B_QJJ8LSc6Or3q1Dz-53" value="" style="ellipse;whiteSpace=wrap;html=1;" vertex="1" parent="1">
          <mxGeometry x="1220" y="1940" width="30" height="30" as="geometry" />
        </mxCell>
        <mxCell id="r-4B_QJJ8LSc6Or3q1Dz-70" value="" style="edgeStyle=orthogonalEdgeStyle;rounded=0;orthogonalLoop=1;jettySize=auto;html=1;" edge="1" parent="1" source="r-4B_QJJ8LSc6Or3q1Dz-60" target="r-4B_QJJ8LSc6Or3q1Dz-69">
          <mxGeometry relative="1" as="geometry" />
        </mxCell>
        <mxCell id="r-4B_QJJ8LSc6Or3q1Dz-154" style="edgeStyle=orthogonalEdgeStyle;rounded=0;orthogonalLoop=1;jettySize=auto;html=1;exitX=1;exitY=0.5;exitDx=0;exitDy=0;entryX=1;entryY=0.5;entryDx=0;entryDy=0;" edge="1" parent="1" source="r-4B_QJJ8LSc6Or3q1Dz-60" target="r-4B_QJJ8LSc6Or3q1Dz-82">
          <mxGeometry relative="1" as="geometry">
            <Array as="points">
              <mxPoint x="1750" y="2140" />
              <mxPoint x="1750" y="1075" />
            </Array>
          </mxGeometry>
        </mxCell>
        <mxCell id="r-4B_QJJ8LSc6Or3q1Dz-60" value="scroe=0 ใช่หรือไม่" style="rhombus;whiteSpace=wrap;html=1;" vertex="1" parent="1">
          <mxGeometry x="1152.5" y="2100" width="165" height="80" as="geometry" />
        </mxCell>
        <mxCell id="r-4B_QJJ8LSc6Or3q1Dz-62" value="yes" style="text;html=1;align=center;verticalAlign=middle;resizable=0;points=[];autosize=1;strokeColor=none;fillColor=none;" vertex="1" parent="1">
          <mxGeometry x="990" y="1695" width="40" height="30" as="geometry" />
        </mxCell>
        <mxCell id="r-4B_QJJ8LSc6Or3q1Dz-63" value="No" style="text;html=1;align=center;verticalAlign=middle;resizable=0;points=[];autosize=1;strokeColor=none;fillColor=none;" vertex="1" parent="1">
          <mxGeometry x="1400" y="1695" width="40" height="30" as="geometry" />
        </mxCell>
        <mxCell id="r-4B_QJJ8LSc6Or3q1Dz-74" value="" style="edgeStyle=orthogonalEdgeStyle;rounded=0;orthogonalLoop=1;jettySize=auto;html=1;" edge="1" parent="1" source="r-4B_QJJ8LSc6Or3q1Dz-69" target="r-4B_QJJ8LSc6Or3q1Dz-73">
          <mxGeometry relative="1" as="geometry" />
        </mxCell>
        <mxCell id="r-4B_QJJ8LSc6Or3q1Dz-69" value="แสดง&quot;Game over please try again&quot;" style="whiteSpace=wrap;html=1;" vertex="1" parent="1">
          <mxGeometry x="620" y="2110" width="220" height="60" as="geometry" />
        </mxCell>
        <mxCell id="r-4B_QJJ8LSc6Or3q1Dz-76" style="edgeStyle=orthogonalEdgeStyle;rounded=0;orthogonalLoop=1;jettySize=auto;html=1;exitX=0.5;exitY=1;exitDx=0;exitDy=0;entryX=0.5;entryY=0;entryDx=0;entryDy=0;" edge="1" parent="1" source="r-4B_QJJ8LSc6Or3q1Dz-73" target="r-4B_QJJ8LSc6Or3q1Dz-75">
          <mxGeometry relative="1" as="geometry" />
        </mxCell>
        <mxCell id="r-4B_QJJ8LSc6Or3q1Dz-73" value="" style="ellipse;whiteSpace=wrap;html=1;" vertex="1" parent="1">
          <mxGeometry x="715" y="2280" width="30" height="30" as="geometry" />
        </mxCell>
        <mxCell id="r-4B_QJJ8LSc6Or3q1Dz-75" value="สิ้นสุด" style="ellipse;whiteSpace=wrap;html=1;" vertex="1" parent="1">
          <mxGeometry x="677.5" y="2380" width="105" height="70" as="geometry" />
        </mxCell>
        <mxCell id="r-4B_QJJ8LSc6Or3q1Dz-79" value="yes" style="text;html=1;align=center;verticalAlign=middle;resizable=0;points=[];autosize=1;strokeColor=none;fillColor=none;" vertex="1" parent="1">
          <mxGeometry x="1040" y="2110" width="40" height="30" as="geometry" />
        </mxCell>
        <mxCell id="r-4B_QJJ8LSc6Or3q1Dz-85" style="edgeStyle=orthogonalEdgeStyle;rounded=0;orthogonalLoop=1;jettySize=auto;html=1;exitX=0.5;exitY=1;exitDx=0;exitDy=0;entryX=0.5;entryY=0;entryDx=0;entryDy=0;" edge="1" parent="1" source="r-4B_QJJ8LSc6Or3q1Dz-82" target="r-4B_QJJ8LSc6Or3q1Dz-23">
          <mxGeometry relative="1" as="geometry" />
        </mxCell>
        <mxCell id="r-4B_QJJ8LSc6Or3q1Dz-82" value="" style="ellipse;whiteSpace=wrap;html=1;" vertex="1" parent="1">
          <mxGeometry x="885" y="1060" width="30" height="30" as="geometry" />
        </mxCell>
        <mxCell id="r-4B_QJJ8LSc6Or3q1Dz-108" style="edgeStyle=orthogonalEdgeStyle;rounded=0;orthogonalLoop=1;jettySize=auto;html=1;exitX=0.5;exitY=1;exitDx=0;exitDy=0;entryX=0.5;entryY=0;entryDx=0;entryDy=0;" edge="1" parent="1" source="r-4B_QJJ8LSc6Or3q1Dz-106" target="r-4B_QJJ8LSc6Or3q1Dz-43">
          <mxGeometry relative="1" as="geometry" />
        </mxCell>
        <mxCell id="r-4B_QJJ8LSc6Or3q1Dz-106" value="score-10" style="whiteSpace=wrap;html=1;" vertex="1" parent="1">
          <mxGeometry x="1170" y="1560" width="120" height="60" as="geometry" />
        </mxCell>
        <mxCell id="r-4B_QJJ8LSc6Or3q1Dz-113" style="edgeStyle=orthogonalEdgeStyle;rounded=0;orthogonalLoop=1;jettySize=auto;html=1;exitX=0.5;exitY=1;exitDx=0;exitDy=0;entryX=0.5;entryY=0;entryDx=0;entryDy=0;" edge="1" parent="1" source="r-4B_QJJ8LSc6Or3q1Dz-111" target="r-4B_QJJ8LSc6Or3q1Dz-106">
          <mxGeometry relative="1" as="geometry" />
        </mxCell>
        <mxCell id="r-4B_QJJ8LSc6Or3q1Dz-116" value="" style="edgeStyle=orthogonalEdgeStyle;rounded=0;orthogonalLoop=1;jettySize=auto;html=1;" edge="1" parent="1" source="r-4B_QJJ8LSc6Or3q1Dz-111" target="r-4B_QJJ8LSc6Or3q1Dz-115">
          <mxGeometry relative="1" as="geometry" />
        </mxCell>
        <mxCell id="r-4B_QJJ8LSc6Or3q1Dz-111" value="Numberเกินขอบเขตหรือน้อยกว่าขอบเขต" style="rhombus;whiteSpace=wrap;html=1;" vertex="1" parent="1">
          <mxGeometry x="1100" y="1440" width="260" height="80" as="geometry" />
        </mxCell>
        <mxCell id="r-4B_QJJ8LSc6Or3q1Dz-114" value="No" style="text;html=1;align=center;verticalAlign=middle;resizable=0;points=[];autosize=1;strokeColor=none;fillColor=none;" vertex="1" parent="1">
          <mxGeometry x="1120" y="1220" width="40" height="30" as="geometry" />
        </mxCell>
        <mxCell id="r-4B_QJJ8LSc6Or3q1Dz-153" style="edgeStyle=orthogonalEdgeStyle;rounded=0;orthogonalLoop=1;jettySize=auto;html=1;exitX=1;exitY=0.5;exitDx=0;exitDy=0;entryX=1;entryY=0.5;entryDx=0;entryDy=0;" edge="1" parent="1" source="r-4B_QJJ8LSc6Or3q1Dz-115" target="r-4B_QJJ8LSc6Or3q1Dz-82">
          <mxGeometry relative="1" as="geometry" />
        </mxCell>
        <mxCell id="r-4B_QJJ8LSc6Or3q1Dz-115" value="แสดง &quot;กรุณาใส่เลขในช่วงที่กำหนด&quot;" style="whiteSpace=wrap;html=1;" vertex="1" parent="1">
          <mxGeometry x="1540" y="1450" width="190" height="60" as="geometry" />
        </mxCell>
        <mxCell id="r-4B_QJJ8LSc6Or3q1Dz-118" value="No" style="text;html=1;align=center;verticalAlign=middle;resizable=0;points=[];autosize=1;strokeColor=none;fillColor=none;" vertex="1" parent="1">
          <mxGeometry x="1180" y="1530" width="40" height="30" as="geometry" />
        </mxCell>
        <mxCell id="r-4B_QJJ8LSc6Or3q1Dz-119" value="yes" style="text;html=1;align=center;verticalAlign=middle;resizable=0;points=[];autosize=1;strokeColor=none;fillColor=none;" vertex="1" parent="1">
          <mxGeometry x="1410" y="1440" width="40" height="30" as="geometry" />
        </mxCell>
        <mxCell id="r-4B_QJJ8LSc6Or3q1Dz-131" style="edgeStyle=orthogonalEdgeStyle;rounded=0;orthogonalLoop=1;jettySize=auto;html=1;exitX=0.5;exitY=1;exitDx=0;exitDy=0;entryX=0.5;entryY=0;entryDx=0;entryDy=0;" edge="1" parent="1" source="r-4B_QJJ8LSc6Or3q1Dz-128" target="r-4B_QJJ8LSc6Or3q1Dz-111">
          <mxGeometry relative="1" as="geometry" />
        </mxCell>
        <mxCell id="r-4B_QJJ8LSc6Or3q1Dz-128" value="แสดงช่วงคะแนนของคำตอบ" style="rounded=0;whiteSpace=wrap;html=1;" vertex="1" parent="1">
          <mxGeometry x="1120" y="1330" width="220" height="60" as="geometry" />
        </mxCell>
        <mxCell id="r-4B_QJJ8LSc6Or3q1Dz-140" value="" style="edgeStyle=orthogonalEdgeStyle;rounded=0;orthogonalLoop=1;jettySize=auto;html=1;" edge="1" parent="1" source="r-4B_QJJ8LSc6Or3q1Dz-137" target="r-4B_QJJ8LSc6Or3q1Dz-139">
          <mxGeometry relative="1" as="geometry" />
        </mxCell>
        <mxCell id="r-4B_QJJ8LSc6Or3q1Dz-137" value="ประกาศตัวแปร intput" style="shape=parallelogram;perimeter=parallelogramPerimeter;whiteSpace=wrap;html=1;fixedSize=1;" vertex="1" parent="1">
          <mxGeometry x="820" y="460" width="200" height="60" as="geometry" />
        </mxCell>
        <mxCell id="r-4B_QJJ8LSc6Or3q1Dz-149" value="" style="edgeStyle=orthogonalEdgeStyle;rounded=0;orthogonalLoop=1;jettySize=auto;html=1;" edge="1" parent="1" source="r-4B_QJJ8LSc6Or3q1Dz-139" target="r-4B_QJJ8LSc6Or3q1Dz-148">
          <mxGeometry relative="1" as="geometry" />
        </mxCell>
        <mxCell id="r-4B_QJJ8LSc6Or3q1Dz-139" value="เป็นตัวเลขใช่หรือไม่" style="rhombus;whiteSpace=wrap;html=1;" vertex="1" parent="1">
          <mxGeometry x="830" y="550" width="180" height="80" as="geometry" />
        </mxCell>
        <mxCell id="r-4B_QJJ8LSc6Or3q1Dz-141" value="แสดง score" style="shape=parallelogram;perimeter=parallelogramPerimeter;whiteSpace=wrap;html=1;fixedSize=1;" vertex="1" parent="1">
          <mxGeometry x="850" y="790" width="120" height="60" as="geometry" />
        </mxCell>
        <mxCell id="r-4B_QJJ8LSc6Or3q1Dz-143" style="edgeStyle=orthogonalEdgeStyle;rounded=0;orthogonalLoop=1;jettySize=auto;html=1;exitX=0.5;exitY=1;exitDx=0;exitDy=0;entryX=0.591;entryY=-0.046;entryDx=0;entryDy=0;entryPerimeter=0;" edge="1" parent="1" source="r-4B_QJJ8LSc6Or3q1Dz-139" target="r-4B_QJJ8LSc6Or3q1Dz-14">
          <mxGeometry relative="1" as="geometry" />
        </mxCell>
        <mxCell id="r-4B_QJJ8LSc6Or3q1Dz-150" style="edgeStyle=orthogonalEdgeStyle;rounded=0;orthogonalLoop=1;jettySize=auto;html=1;exitX=1;exitY=0.5;exitDx=0;exitDy=0;entryX=1;entryY=0.5;entryDx=0;entryDy=0;" edge="1" parent="1" source="r-4B_QJJ8LSc6Or3q1Dz-148" target="r-4B_QJJ8LSc6Or3q1Dz-38">
          <mxGeometry relative="1" as="geometry" />
        </mxCell>
        <mxCell id="r-4B_QJJ8LSc6Or3q1Dz-148" value="&quot;Plase enter only 1 or -1&quot;" style="whiteSpace=wrap;html=1;" vertex="1" parent="1">
          <mxGeometry x="1120" y="560" width="180" height="60" as="geometry" />
        </mxCell>
        <mxCell id="r-4B_QJJ8LSc6Or3q1Dz-151" style="edgeStyle=orthogonalEdgeStyle;rounded=0;orthogonalLoop=1;jettySize=auto;html=1;exitX=0.5;exitY=1;exitDx=0;exitDy=0;entryX=0.582;entryY=0.054;entryDx=0;entryDy=0;entryPerimeter=0;" edge="1" parent="1" source="r-4B_QJJ8LSc6Or3q1Dz-141" target="r-4B_QJJ8LSc6Or3q1Dz-19">
          <mxGeometry relative="1" as="geometry" />
        </mxCell>
        <mxCell id="r-4B_QJJ8LSc6Or3q1Dz-156" value="1" style="text;html=1;align=center;verticalAlign=middle;resizable=0;points=[];autosize=1;strokeColor=none;fillColor=none;" vertex="1" parent="1">
          <mxGeometry x="880" y="430" width="30" height="30" as="geometry" />
        </mxCell>
        <mxCell id="r-4B_QJJ8LSc6Or3q1Dz-157" value="-1" style="text;html=1;align=center;verticalAlign=middle;resizable=0;points=[];autosize=1;strokeColor=none;fillColor=none;" vertex="1" parent="1">
          <mxGeometry x="1130" y="360" width="30" height="30" as="geometry" />
        </mxCell>
      </root>
    </mxGraphModel>
  </diagram>
</mxfile>
